<svg id="visual" viewBox="0 0 1080 500" width="1080" height="500" xmlns="http://www.w3.org/2000/svg" xmlns:xlink="http://www.w3.org/1999/xlink" version="1.1"><path d="M0 96L270 41L540 36L810 31L1080 76L1080 0L810 0L540 0L270 0L0 0Z" fill="#4361ee"></path><path d="M0 166L270 206L540 196L810 156L1080 136L1080 74L810 29L540 34L270 39L0 94Z" fill="#3c58e1"></path><path d="M0 316L270 296L540 386L810 286L1080 301L1080 134L810 154L540 194L270 204L0 164Z" fill="#3450d4"></path><path d="M0 436L270 426L540 446L810 416L1080 421L1080 299L810 284L540 384L270 294L0 314Z" fill="#2c47c7"></path><path d="M0 501L270 501L540 501L810 501L1080 501L1080 419L810 414L540 444L270 424L0 434Z" fill="#233fbb"></path></svg>