<svg id="visual" viewBox="0 0 1920 1080" width="1920" height="1080" xmlns="http://www.w3.org/2000/svg" xmlns:xlink="http://www.w3.org/1999/xlink" version="1.1"><rect x="0" y="0" width="1920" height="1080" fill="#4361ee"></rect><defs><linearGradient id="grad1_0" x1="43.8%" y1="0%" x2="100%" y2="100%"><stop offset="14.444444444444446%" stop-color="#637efa" stop-opacity="1"></stop><stop offset="85.55555555555554%" stop-color="#637efa" stop-opacity="1"></stop></linearGradient></defs><defs><linearGradient id="grad1_1" x1="43.8%" y1="0%" x2="100%" y2="100%"><stop offset="14.444444444444446%" stop-color="#637efa" stop-opacity="1"></stop><stop offset="85.55555555555554%" stop-color="#5974f6" stop-opacity="1"></stop></linearGradient></defs><defs><linearGradient id="grad1_2" x1="43.8%" y1="0%" x2="100%" y2="100%"><stop offset="14.444444444444446%" stop-color="#4e6bf2" stop-opacity="1"></stop><stop offset="85.55555555555554%" stop-color="#5974f6" stop-opacity="1"></stop></linearGradient></defs><defs><linearGradient id="grad1_3" x1="43.8%" y1="0%" x2="100%" y2="100%"><stop offset="14.444444444444446%" stop-color="#4e6bf2" stop-opacity="1"></stop><stop offset="85.55555555555554%" stop-color="#4361ee" stop-opacity="1"></stop></linearGradient></defs><defs><linearGradient id="grad2_0" x1="0%" y1="0%" x2="56.3%" y2="100%"><stop offset="14.444444444444446%" stop-color="#637efa" stop-opacity="1"></stop><stop offset="85.55555555555554%" stop-color="#637efa" stop-opacity="1"></stop></linearGradient></defs><defs><linearGradient id="grad2_1" x1="0%" y1="0%" x2="56.3%" y2="100%"><stop offset="14.444444444444446%" stop-color="#5974f6" stop-opacity="1"></stop><stop offset="85.55555555555554%" stop-color="#637efa" stop-opacity="1"></stop></linearGradient></defs><defs><linearGradient id="grad2_2" x1="0%" y1="0%" x2="56.3%" y2="100%"><stop offset="14.444444444444446%" stop-color="#5974f6" stop-opacity="1"></stop><stop offset="85.55555555555554%" stop-color="#4e6bf2" stop-opacity="1"></stop></linearGradient></defs><defs><linearGradient id="grad2_3" x1="0%" y1="0%" x2="56.3%" y2="100%"><stop offset="14.444444444444446%" stop-color="#4361ee" stop-opacity="1"></stop><stop offset="85.55555555555554%" stop-color="#4e6bf2" stop-opacity="1"></stop></linearGradient></defs><g transform="translate(1920, 0)"><path d="M0 1026C-114.1 1027.9 -228.2 1029.8 -317.1 975.8C-405.9 921.7 -469.6 811.7 -527.2 725.7C-584.9 639.7 -636.5 577.8 -708.7 514.9C-780.9 452 -873.8 388.2 -930.1 302.2C-986.5 216.2 -1006.2 108.1 -1026 0L0 0Z" fill="#4966f0"></path><path d="M0 769.5C-85.6 770.9 -171.1 772.4 -237.8 731.8C-304.4 691.3 -352.2 608.8 -395.4 544.3C-438.7 479.8 -477.3 433.3 -531.5 386.2C-585.7 339 -655.4 291.1 -697.6 226.7C-739.8 162.2 -754.7 81.1 -769.5 0L0 0Z" fill="#5370f4"></path><path d="M0 513C-57 514 -114.1 514.9 -158.5 487.9C-203 460.9 -234.8 405.8 -263.6 362.8C-292.4 319.9 -318.2 288.9 -354.3 257.4C-390.5 226 -436.9 194.1 -465.1 151.1C-493.2 108.1 -503.1 54.1 -513 0L0 0Z" fill="#5e79f8"></path><path d="M0 256.5C-28.5 257 -57 257.5 -79.3 243.9C-101.5 230.4 -117.4 202.9 -131.8 181.4C-146.2 159.9 -159.1 144.4 -177.2 128.7C-195.2 113 -218.5 97 -232.5 75.6C-246.6 54.1 -251.6 27 -256.5 0L0 0Z" fill="#637efa"></path></g><g transform="translate(0, 1080)"><path d="M0 -1026C76.8 -919.6 153.6 -813.1 257.4 -792.2C361.3 -771.3 492.2 -835.9 594.3 -817.9C696.3 -799.9 769.5 -699.4 830.1 -603.1C890.6 -506.8 938.6 -414.7 969.1 -314.9C999.7 -215.1 1012.8 -107.5 1026 0L0 0Z" fill="#4966f0"></path><path d="M0 -769.5C57.6 -689.7 115.2 -609.9 193.1 -594.2C270.9 -578.5 369.1 -626.9 445.7 -613.4C522.2 -599.9 577.1 -524.5 622.5 -452.3C668 -380.1 703.9 -311 726.8 -236.2C749.8 -161.3 759.6 -80.7 769.5 0L0 0Z" fill="#5370f4"></path><path d="M0 -513C38.4 -459.8 76.8 -406.6 128.7 -396.1C180.6 -385.7 246.1 -417.9 297.1 -409C348.2 -400 384.7 -349.7 415 -301.5C445.3 -253.4 469.3 -207.3 484.6 -157.4C499.8 -107.5 506.4 -53.8 513 0L0 0Z" fill="#5e79f8"></path><path d="M0 -256.5C19.2 -229.9 38.4 -203.3 64.4 -198.1C90.3 -192.8 123 -209 148.6 -204.5C174.1 -200 192.4 -174.8 207.5 -150.8C222.7 -126.7 234.6 -103.7 242.3 -78.7C249.9 -53.8 253.2 -26.9 256.5 0L0 0Z" fill="#637efa"></path></g></svg>