<svg id="visual" viewBox="0 0 1920 1080" width="1920" height="1080" xmlns="http://www.w3.org/2000/svg" xmlns:xlink="http://www.w3.org/1999/xlink" version="1.1"><rect x="0" y="0" width="1920" height="1080" fill="#233fbb"></rect><defs><linearGradient id="grad1_0" x1="43.8%" y1="0%" x2="100%" y2="100%"><stop offset="14.444444444444446%" stop-color="#4361ee" stop-opacity="1"></stop><stop offset="85.55555555555554%" stop-color="#4361ee" stop-opacity="1"></stop></linearGradient></defs><defs><linearGradient id="grad1_1" x1="43.8%" y1="0%" x2="100%" y2="100%"><stop offset="14.444444444444446%" stop-color="#4361ee" stop-opacity="1"></stop><stop offset="85.55555555555554%" stop-color="#3450d4" stop-opacity="1"></stop></linearGradient></defs><defs><linearGradient id="grad1_2" x1="43.8%" y1="0%" x2="100%" y2="100%"><stop offset="14.444444444444446%" stop-color="#233fbb" stop-opacity="1"></stop><stop offset="85.55555555555554%" stop-color="#3450d4" stop-opacity="1"></stop></linearGradient></defs><defs><linearGradient id="grad2_0" x1="0%" y1="0%" x2="56.3%" y2="100%"><stop offset="14.444444444444446%" stop-color="#4361ee" stop-opacity="1"></stop><stop offset="85.55555555555554%" stop-color="#4361ee" stop-opacity="1"></stop></linearGradient></defs><defs><linearGradient id="grad2_1" x1="0%" y1="0%" x2="56.3%" y2="100%"><stop offset="14.444444444444446%" stop-color="#3450d4" stop-opacity="1"></stop><stop offset="85.55555555555554%" stop-color="#4361ee" stop-opacity="1"></stop></linearGradient></defs><defs><linearGradient id="grad2_2" x1="0%" y1="0%" x2="56.3%" y2="100%"><stop offset="14.444444444444446%" stop-color="#3450d4" stop-opacity="1"></stop><stop offset="85.55555555555554%" stop-color="#233fbb" stop-opacity="1"></stop></linearGradient></defs><g transform="translate(1920, 0)"><path d="M0 1080C-92.1 1050.8 -184.1 1021.6 -263 981.4C-341.8 941.2 -407.4 890 -497 860.8C-586.6 831.7 -700.2 824.7 -763.7 763.7C-827.2 702.7 -840.6 587.7 -854.8 493.5C-868.9 399.3 -883.8 325.7 -921.5 246.9C-959.2 168.1 -1019.6 84.1 -1080 0L0 0Z" fill="#2c47c8"></path><path d="M0 720C-61.4 700.5 -122.7 681.1 -175.3 654.3C-227.9 627.4 -271.6 593.3 -331.3 573.9C-391.1 554.5 -466.8 549.8 -509.1 509.1C-551.5 468.5 -560.4 391.8 -569.8 329C-579.3 266.2 -589.2 217.1 -614.3 164.6C-639.4 112.1 -679.7 56 -720 0L0 0Z" fill="#3c58e1"></path><path d="M0 360C-30.7 350.3 -61.4 340.5 -87.7 327.1C-113.9 313.7 -135.8 296.7 -165.7 286.9C-195.5 277.2 -233.4 274.9 -254.6 254.6C-275.7 234.2 -280.2 195.9 -284.9 164.5C-289.6 133.1 -294.6 108.6 -307.2 82.3C-319.7 56 -339.9 28 -360 0L0 0Z" fill="#4361ee"></path></g><g transform="translate(0, 1080)"><path d="M0 -1080C105.5 -1094.3 211 -1108.6 279.5 -1043.2C348 -977.8 379.4 -832.6 440 -762.1C500.6 -691.6 590.3 -695.6 659.7 -659.7C729.2 -623.8 778.3 -548 823.6 -475.5C868.9 -403 910.3 -333.9 952.4 -255.2C994.5 -176.5 1037.2 -88.3 1080 0L0 0Z" fill="#2c47c8"></path><path d="M0 -720C70.3 -729.5 140.7 -739.1 186.3 -695.5C232 -651.9 253 -555.1 293.3 -508.1C333.7 -461 393.5 -463.7 439.8 -439.8C486.1 -415.9 518.9 -365.3 549.1 -317C579.3 -268.7 606.9 -222.6 634.9 -170.1C663 -117.7 691.5 -58.8 720 0L0 0Z" fill="#3c58e1"></path><path d="M0 -360C35.2 -364.8 70.3 -369.5 93.2 -347.7C116 -325.9 126.5 -277.5 146.7 -254C166.9 -230.5 196.8 -231.9 219.9 -219.9C243.1 -207.9 259.4 -182.7 274.5 -158.5C289.6 -134.3 303.4 -111.3 317.5 -85.1C331.5 -58.8 345.7 -29.4 360 0L0 0Z" fill="#4361ee"></path></g></svg>