<svg width="850" height="755" viewBox="0 0 850 755" fill="none" xmlns="http://www.w3.org/2000/svg">
<g filter="url(#filter0_d_6_26)">
<path d="M699.5 5.18203C781.436 24.528 842.888 108.74 844.026 195.228C845.164 281.716 787.126 371.618 755.262 452.416C724.536 533.214 722.26 606.046 686.982 657.256C651.704 708.466 585.7 739.192 520.834 743.744C455.968 747.158 393.378 726.674 325.098 711.88C256.818 697.086 182.848 689.12 127.086 650.428C70.1861 612.874 29.2181 544.594 13.2861 470.624C-2.64595 395.516 5.32006 313.58 32.6321 235.058C59.9441 156.536 105.464 81.428 172.606 55.254C239.748 29.08 327.374 52.978 421.828 42.736C516.282 31.356 618.702 -14.164 699.5 5.18203Z" fill="url(#paint0_linear_6_26)"/>
</g>
<g filter="url(#filter1_f_6_26)">
<ellipse cx="415.877" cy="636.729" rx="343.413" ry="3.79462" fill="black"/>
</g>
<path d="M108.375 220C108.375 205.088 120.463 193 135.375 193H698.656C713.568 193 725.656 205.088 725.656 220V608.444C725.656 610.101 724.313 611.444 722.656 611.444H111.375C109.718 611.444 108.375 610.101 108.375 608.444V220Z" fill="#1A202C" stroke="#4A5568" stroke-width="2"/>
<path d="M111.169 217.795C111.169 205.644 121.019 195.795 133.169 195.795H700.862C713.012 195.795 722.862 205.644 722.862 217.795V596.506H111.169V217.795Z" fill="black"/>
<rect x="123.312" y="215.527" width="584.371" height="364.283" fill="white"/>
<path d="M356.217 391.866H352.526V409.32H356.217V391.866ZM362.815 401.752C362.824 400.064 363.829 399.076 365.295 399.076C366.753 399.076 367.631 400.03 367.622 401.633V409.32H371.253V400.985C371.253 397.934 369.463 396.059 366.736 396.059C364.793 396.059 363.386 397.013 362.798 398.539H362.645V396.229H359.185V409.32H362.815V401.752ZM385.006 399.962C384.682 397.55 382.739 396.059 379.432 396.059C376.083 396.059 373.876 397.61 373.884 400.133C373.876 402.093 375.111 403.363 377.668 403.874L379.935 404.326C381.077 404.556 381.597 404.974 381.614 405.63C381.597 406.405 380.753 406.959 379.484 406.959C378.188 406.959 377.327 406.405 377.106 405.34L373.535 405.528C373.876 408.033 376.006 409.576 379.475 409.576C382.867 409.576 385.296 407.846 385.305 405.263C385.296 403.371 384.06 402.238 381.521 401.718L379.151 401.241C377.932 400.976 377.481 400.559 377.489 399.928C377.481 399.144 378.367 398.633 379.492 398.633C380.753 398.633 381.503 399.323 381.682 400.167L385.006 399.962ZM393.557 409.576C396.795 409.576 398.977 407.999 399.489 405.57L396.131 405.349C395.764 406.346 394.827 406.866 393.616 406.866C391.801 406.866 390.651 405.664 390.651 403.712V403.704H399.565V402.706C399.565 398.258 396.872 396.059 393.412 396.059C389.56 396.059 387.062 398.795 387.062 402.834C387.062 406.985 389.526 409.576 393.557 409.576ZM390.651 401.454C390.727 399.962 391.861 398.769 393.472 398.769C395.048 398.769 396.139 399.894 396.148 401.454H390.651ZM401.935 409.32H405.565V401.914C405.565 400.303 406.741 399.195 408.344 399.195C408.847 399.195 409.537 399.28 409.878 399.391V396.17C409.554 396.093 409.102 396.042 408.736 396.042C407.27 396.042 406.068 396.894 405.591 398.513H405.454V396.229H401.935V409.32ZM419.374 396.229H416.911V393.093H413.28V396.229H411.491V398.956H413.28V405.775C413.263 408.34 415.011 409.61 417.644 409.499C418.582 409.465 419.246 409.278 419.613 409.158L419.042 406.456C418.863 406.491 418.479 406.576 418.138 406.576C417.414 406.576 416.911 406.303 416.911 405.297V398.956H419.374V396.229ZM426.339 391.866L432.706 403.15V409.32H436.371V403.15L442.737 391.866H438.604L434.624 399.383H434.453L430.473 391.866H426.339ZM447.881 409.576C451.852 409.576 454.324 406.857 454.324 402.826C454.324 398.769 451.852 396.059 447.881 396.059C443.909 396.059 441.437 398.769 441.437 402.826C441.437 406.857 443.909 409.576 447.881 409.576ZM447.898 406.763C446.065 406.763 445.128 405.084 445.128 402.8C445.128 400.516 446.065 398.829 447.898 398.829C449.696 398.829 450.633 400.516 450.633 402.8C450.633 405.084 449.696 406.763 447.898 406.763ZM465.079 403.746C465.088 405.502 463.886 406.422 462.582 406.422C461.21 406.422 460.324 405.459 460.315 403.917V396.229H456.685V404.564C456.693 407.624 458.483 409.491 461.116 409.491C463.085 409.491 464.5 408.476 465.088 406.942H465.224V409.32H468.71V396.229H465.079V403.746ZM471.614 409.32H475.245V401.914C475.245 400.303 476.421 399.195 478.023 399.195C478.526 399.195 479.217 399.28 479.557 399.391V396.17C479.234 396.093 478.782 396.042 478.415 396.042C476.95 396.042 475.748 396.894 475.271 398.513H475.134V396.229H471.614V409.32ZM351.554 431.32C356.872 431.32 360.093 428.03 360.093 422.576C360.093 417.138 356.872 413.866 351.605 413.866H345.366V431.32H351.554ZM349.056 428.158V417.028H351.409C354.681 417.028 356.412 418.698 356.412 422.576C356.412 426.471 354.681 428.158 351.4 428.158H349.056ZM368.725 431.576C371.963 431.576 374.145 429.999 374.657 427.57L371.299 427.349C370.932 428.346 369.995 428.866 368.784 428.866C366.969 428.866 365.818 427.664 365.818 425.712V425.704H374.733V424.706C374.733 420.258 372.04 418.059 368.58 418.059C364.728 418.059 362.23 420.795 362.23 424.834C362.23 428.985 364.693 431.576 368.725 431.576ZM365.818 423.454C365.895 421.962 367.029 420.769 368.639 420.769C370.216 420.769 371.307 421.894 371.316 423.454H365.818ZM387.995 421.962C387.671 419.55 385.728 418.059 382.421 418.059C379.071 418.059 376.864 419.61 376.872 422.133C376.864 424.093 378.1 425.363 380.657 425.874L382.924 426.326C384.066 426.556 384.586 426.974 384.603 427.63C384.586 428.405 383.742 428.959 382.472 428.959C381.176 428.959 380.316 428.405 380.094 427.34L376.523 427.528C376.864 430.033 378.995 431.576 382.463 431.576C385.855 431.576 388.284 429.846 388.293 427.263C388.284 425.371 387.049 424.238 384.509 423.718L382.139 423.241C380.921 422.976 380.469 422.559 380.478 421.928C380.469 421.144 381.355 420.633 382.48 420.633C383.742 420.633 384.492 421.323 384.671 422.167L387.995 421.962ZM390.579 431.32H394.21V418.229H390.579V431.32ZM392.403 416.542C393.485 416.542 394.372 415.715 394.372 414.701C394.372 413.695 393.485 412.868 392.403 412.868C391.329 412.868 390.443 413.695 390.443 414.701C390.443 415.715 391.329 416.542 392.403 416.542ZM403.016 436.502C406.757 436.502 409.416 434.797 409.416 431.448V418.229H405.811V420.428H405.675C405.189 419.363 404.124 418.059 401.934 418.059C399.061 418.059 396.632 420.292 396.632 424.749C396.632 429.104 398.993 431.133 401.942 431.133C404.03 431.133 405.198 430.084 405.675 429.002H405.828V431.397C405.828 433.195 404.678 433.894 403.101 433.894C401.499 433.894 400.689 433.195 400.391 432.403L397.033 432.854C397.468 434.917 399.488 436.502 403.016 436.502ZM403.093 428.405C401.311 428.405 400.34 426.991 400.34 424.732C400.34 422.508 401.294 420.948 403.093 420.948C404.857 420.948 405.845 422.439 405.845 424.732C405.845 427.042 404.84 428.405 403.093 428.405ZM415.936 423.752C415.945 422.064 416.951 421.076 418.416 421.076C419.874 421.076 420.752 422.03 420.743 423.633V431.32H424.374V422.985C424.374 419.934 422.584 418.059 419.857 418.059C417.914 418.059 416.507 419.013 415.919 420.539H415.766V418.229H412.306V431.32H415.936V423.752ZM432.858 431.32H436.549V424.11H444.04V431.32H447.722V413.866H444.04V421.067H436.549V413.866H432.858V431.32ZM456.662 431.576C459.901 431.576 462.083 429.999 462.594 427.57L459.236 427.349C458.87 428.346 457.932 428.866 456.722 428.866C454.907 428.866 453.756 427.664 453.756 425.712V425.704H462.671V424.706C462.671 420.258 459.978 418.059 456.517 418.059C452.665 418.059 450.168 420.795 450.168 424.834C450.168 428.985 452.631 431.576 456.662 431.576ZM453.756 423.454C453.833 421.962 454.966 420.769 456.577 420.769C458.154 420.769 459.245 421.894 459.253 423.454H453.756ZM465.04 431.32H468.671V423.914C468.671 422.303 469.847 421.195 471.449 421.195C471.952 421.195 472.642 421.28 472.983 421.391V418.17C472.659 418.093 472.208 418.042 471.841 418.042C470.375 418.042 469.174 418.894 468.696 420.513H468.56V418.229H465.04V431.32ZM480.217 431.576C483.456 431.576 485.637 429.999 486.149 427.57L482.791 427.349C482.424 428.346 481.487 428.866 480.277 428.866C478.461 428.866 477.311 427.664 477.311 425.712V425.704H486.225V424.706C486.225 420.258 483.532 418.059 480.072 418.059C476.22 418.059 473.723 420.795 473.723 424.834C473.723 428.985 476.186 431.576 480.217 431.576ZM477.311 423.454C477.387 421.962 478.521 420.769 480.132 420.769C481.708 420.769 482.799 421.894 482.808 423.454H477.311Z" fill="#2D3748"/>
<path d="M387.731 598.811V608.265H389.374V601.756H389.462L392.075 608.237H393.303L395.916 601.77H396.004V608.265H397.647V598.811H395.551L392.744 605.661H392.634L389.827 598.811H387.731ZM401.479 608.408C402.591 608.408 403.256 607.887 403.561 607.291H403.616V608.265H405.223V603.519C405.223 601.645 403.695 601.082 402.342 601.082C400.851 601.082 399.706 601.747 399.337 603.039L400.897 603.261C401.063 602.776 401.534 602.361 402.351 602.361C403.127 602.361 403.552 602.758 403.552 603.455V603.482C403.552 603.963 403.048 603.986 401.797 604.12C400.422 604.267 399.106 604.678 399.106 606.275C399.106 607.67 400.126 608.408 401.479 608.408ZM401.913 607.18C401.216 607.18 400.717 606.862 400.717 606.248C400.717 605.606 401.276 605.338 402.023 605.232C402.462 605.172 403.339 605.061 403.556 604.886V605.721C403.556 606.511 402.919 607.18 401.913 607.18ZM409.996 608.404C411.778 608.404 412.914 607.346 413.034 605.842H411.436C411.293 606.603 410.744 607.042 410.01 607.042C408.967 607.042 408.293 606.169 408.293 604.72C408.293 603.289 408.981 602.43 410.01 602.43C410.813 602.43 411.307 602.947 411.436 603.63H413.034C412.918 602.093 411.718 601.082 409.987 601.082C407.909 601.082 406.598 602.582 406.598 604.747C406.598 606.894 407.877 608.404 409.996 608.404ZM414.48 608.265H416.123V607.148H416.22C416.483 607.665 417.033 608.39 418.252 608.39C419.923 608.39 421.174 607.065 421.174 604.729C421.174 602.365 419.886 601.082 418.247 601.082C416.996 601.082 416.474 601.834 416.22 602.347H416.151V598.811H414.48V608.265ZM416.119 604.72C416.119 603.344 416.71 602.453 417.785 602.453C418.898 602.453 419.47 603.399 419.47 604.72C419.47 606.049 418.889 607.019 417.785 607.019C416.719 607.019 416.119 606.095 416.119 604.72ZM425.688 608.404C427.765 608.404 429.085 606.94 429.085 604.747C429.085 602.55 427.765 601.082 425.688 601.082C423.61 601.082 422.29 602.55 422.29 604.747C422.29 606.94 423.61 608.404 425.688 608.404ZM425.697 607.065C424.547 607.065 423.984 606.04 423.984 604.743C423.984 603.446 424.547 602.407 425.697 602.407C426.828 602.407 427.391 603.446 427.391 604.743C427.391 606.04 426.828 607.065 425.697 607.065ZM433.597 608.404C435.674 608.404 436.994 606.94 436.994 604.747C436.994 602.55 435.674 601.082 433.597 601.082C431.519 601.082 430.199 602.55 430.199 604.747C430.199 606.94 431.519 608.404 433.597 608.404ZM433.606 607.065C432.456 607.065 431.893 606.04 431.893 604.743C431.893 603.446 432.456 602.407 433.606 602.407C434.737 602.407 435.3 603.446 435.3 604.743C435.3 606.04 434.737 607.065 433.606 607.065ZM438.413 608.265H440.084V605.883L440.693 605.232L442.863 608.265H444.862L441.954 604.235L444.701 601.174H442.748L440.199 604.023H440.084V598.811H438.413V608.265ZM406.241 620.265H407.953V617.071H409.763C411.947 617.071 413.119 615.759 413.119 613.941C413.119 612.136 411.96 610.811 409.786 610.811H406.241V620.265ZM407.953 615.663V612.242H409.523C410.806 612.242 411.374 612.934 411.374 613.941C411.374 614.947 410.806 615.663 409.532 615.663H407.953ZM414.533 620.265H416.204V616.096C416.204 615.196 416.883 614.559 417.801 614.559C418.083 614.559 418.434 614.61 418.577 614.656V613.119C418.425 613.091 418.162 613.073 417.977 613.073C417.164 613.073 416.486 613.534 416.227 614.356H416.153V613.174H414.533V620.265ZM422.488 620.404C424.566 620.404 425.886 618.94 425.886 616.747C425.886 614.55 424.566 613.082 422.488 613.082C420.411 613.082 419.091 614.55 419.091 616.747C419.091 618.94 420.411 620.404 422.488 620.404ZM422.498 619.065C421.348 619.065 420.785 618.04 420.785 616.743C420.785 615.446 421.348 614.407 422.498 614.407C423.629 614.407 424.192 615.446 424.192 616.743C424.192 618.04 423.629 619.065 422.498 619.065Z" fill="#A0AEC0"/>
<path d="M33 611.408C33 610.303 33.8954 609.408 35 609.408H795.995C797.1 609.408 797.995 610.303 797.995 611.408V623.069H33V611.408Z" fill="#A3ACB1"/>
<path d="M33 611.408C33 610.303 33.8954 609.408 35 609.408H795.995C797.1 609.408 797.995 610.303 797.995 611.408V623.069H33V611.408Z" fill="url(#paint1_linear_6_26)"/>
<path d="M33 623.069H797.995L791.985 624.281C765.952 629.531 739.462 632.176 712.905 632.176H115.963C88.0595 632.176 60.2394 629.122 33 623.069Z" fill="#647279"/>
<path d="M33 623.069H797.995L791.985 624.281C765.952 629.531 739.462 632.176 712.905 632.176H115.963C88.0595 632.176 60.2394 629.122 33 623.069Z" fill="url(#paint2_linear_6_26)"/>
<path fill-rule="evenodd" clip-rule="evenodd" d="M352.532 609.408C352.922 615.341 357.859 620.033 363.891 620.033H467.863C473.895 620.033 478.832 615.341 479.222 609.408H352.532Z" fill="#96A1A8"/>
<path fill-rule="evenodd" clip-rule="evenodd" d="M352.532 609.408C352.922 615.341 357.859 620.033 363.891 620.033H467.863C473.895 620.033 478.832 615.341 479.222 609.408H352.532Z" fill="url(#paint3_linear_6_26)"/>
<defs>
<filter id="filter0_d_6_26" x="0.142883" y="0.452667" width="848.9" height="753.669" filterUnits="userSpaceOnUse" color-interpolation-filters="sRGB">
<feFlood flood-opacity="0" result="BackgroundImageFix"/>
<feColorMatrix in="SourceAlpha" type="matrix" values="0 0 0 0 0 0 0 0 0 0 0 0 0 0 0 0 0 0 127 0" result="hardAlpha"/>
<feOffset dy="5"/>
<feGaussianBlur stdDeviation="2.5"/>
<feComposite in2="hardAlpha" operator="out"/>
<feColorMatrix type="matrix" values="0 0 0 0 0 0 0 0 0 0 0 0 0 0 0 0 0 0 0.25 0"/>
<feBlend mode="normal" in2="BackgroundImageFix" result="effect1_dropShadow_6_26"/>
<feBlend mode="normal" in="SourceGraphic" in2="effect1_dropShadow_6_26" result="shape"/>
</filter>
<filter id="filter1_f_6_26" x="28.4641" y="588.935" width="774.826" height="95.5892" filterUnits="userSpaceOnUse" color-interpolation-filters="sRGB">
<feFlood flood-opacity="0" result="BackgroundImageFix"/>
<feBlend mode="normal" in="SourceGraphic" in2="BackgroundImageFix" result="shape"/>
<feGaussianBlur stdDeviation="22" result="effect1_foregroundBlur_6_26"/>
</filter>
<linearGradient id="paint0_linear_6_26" x1="5.14288" y1="744.121" x2="743.445" y2="-88.7249" gradientUnits="userSpaceOnUse">
<stop stop-color="#1C41FF"/>
<stop offset="1" stop-color="#00A1FF"/>
</linearGradient>
<linearGradient id="paint1_linear_6_26" x1="33" y1="616.238" x2="797.995" y2="616.238" gradientUnits="userSpaceOnUse">
<stop stop-color="#0D1012"/>
<stop offset="0.0295345" stop-color="#CAD4DB"/>
<stop offset="0.0625" stop-color="#242729"/>
<stop offset="0.133609" stop-color="#A3ACB1"/>
<stop offset="0.865967" stop-color="#A3ACB1"/>
<stop offset="0.941937" stop-color="#242729"/>
<stop offset="0.971275" stop-color="#CAD4DB"/>
<stop offset="0.996436" stop-color="#0D1012"/>
</linearGradient>
<linearGradient id="paint2_linear_6_26" x1="415.497" y1="623.069" x2="415.497" y2="632.176" gradientUnits="userSpaceOnUse">
<stop stop-color="#7A7F83"/>
<stop offset="1" stop-color="#0B0B0E"/>
</linearGradient>
<linearGradient id="paint3_linear_6_26" x1="365.029" y1="615.859" x2="469.002" y2="615.859" gradientUnits="userSpaceOnUse">
<stop stop-color="#3C3C3C"/>
<stop offset="0.317518" stop-color="#3C3C3C" stop-opacity="0"/>
<stop offset="0.660584" stop-color="#3C3C3C" stop-opacity="0"/>
<stop offset="1" stop-color="#444444"/>
</linearGradient>
</defs>
</svg>
