<svg width="141" height="35" viewBox="0 0 141 35" fill="none" xmlns="http://www.w3.org/2000/svg">
<path d="M7.45001 0.0499878V34.95H0.450012V0.0499878H7.45001Z" fill="white"/>
<path d="M34.066 34.95L21.366 19.4V34.95H14.366V0.0499878H21.366V15.7L34.066 0.0499878H42.516L28.116 17.35L42.916 34.95H34.066Z" fill="white"/>
<path fill-rule="evenodd" clip-rule="evenodd" d="M52.916 35L52.916 -4.37114e-08L53.916 0L53.916 35L52.916 35Z" fill="white"/>
<path d="M66.716 3.76V17.72H63.916V3.76H66.716Z" fill="white"/>
<path d="M77.3024 17.86C76.3291 17.86 75.4491 17.6933 74.6624 17.36C73.8891 17.0267 73.2758 16.5467 72.8224 15.92C72.3691 15.2933 72.1358 14.5533 72.1224 13.7H75.1224C75.1624 14.2733 75.3624 14.7267 75.7224 15.06C76.0958 15.3933 76.6024 15.56 77.2424 15.56C77.8958 15.56 78.4091 15.4067 78.7824 15.1C79.1558 14.78 79.3424 14.3667 79.3424 13.86C79.3424 13.4467 79.2158 13.1067 78.9624 12.84C78.7091 12.5733 78.3891 12.3667 78.0024 12.22C77.6291 12.06 77.1091 11.8867 76.4424 11.7C75.5358 11.4333 74.7958 11.1733 74.2224 10.92C73.6624 10.6533 73.1758 10.26 72.7624 9.74C72.3624 9.20666 72.1624 8.5 72.1624 7.62C72.1624 6.79333 72.3691 6.07333 72.7824 5.46C73.1958 4.84666 73.7758 4.38 74.5224 4.06C75.2691 3.72666 76.1224 3.56 77.0824 3.56C78.5224 3.56 79.6891 3.91333 80.5824 4.62C81.4891 5.31333 81.9891 6.28666 82.0824 7.54H79.0024C78.9758 7.06 78.7691 6.66666 78.3824 6.36C78.0091 6.04 77.5091 5.88 76.8824 5.88C76.3358 5.88 75.8958 6.02 75.5624 6.3C75.2424 6.58 75.0824 6.98666 75.0824 7.52C75.0824 7.89333 75.2024 8.20666 75.4424 8.46C75.6958 8.7 76.0024 8.9 76.3624 9.06C76.7358 9.20666 77.2558 9.38 77.9224 9.58C78.8291 9.84666 79.5691 10.1133 80.1424 10.38C80.7158 10.6467 81.2091 11.0467 81.6224 11.58C82.0358 12.1133 82.2424 12.8133 82.2424 13.68C82.2424 14.4267 82.0491 15.12 81.6624 15.76C81.2758 16.4 80.7091 16.9133 79.9624 17.3C79.2158 17.6733 78.3291 17.86 77.3024 17.86Z" fill="white"/>
<path d="M90.4699 3.76V17.72H87.6699V3.76H90.4699Z" fill="white"/>
<path d="M104.116 17.72L99.0363 11.5V17.72H96.2363V3.76H99.0363V10.02L104.116 3.76H107.496L101.736 10.68L107.656 17.72H104.116Z" fill="white"/>
<path d="M121.058 15.06H115.498L114.578 17.72H111.638L116.658 3.74H119.918L124.938 17.72H121.978L121.058 15.06ZM120.298 12.82L118.278 6.98L116.258 12.82H120.298Z" fill="white"/>
<path d="M137.014 17.72L133.934 12.28H132.614V17.72H129.814V3.76H135.054C136.134 3.76 137.054 3.95333 137.814 4.34C138.574 4.71333 139.141 5.22666 139.514 5.88C139.901 6.52 140.094 7.24 140.094 8.04C140.094 8.96 139.828 9.79333 139.294 10.54C138.761 11.2733 137.968 11.78 136.914 12.06L140.254 17.72H137.014ZM132.614 10.18H134.954C135.714 10.18 136.281 10 136.654 9.64C137.028 9.26666 137.214 8.75333 137.214 8.1C137.214 7.46 137.028 6.96666 136.654 6.62C136.281 6.26 135.714 6.08 134.954 6.08H132.614V10.18Z" fill="white"/>
<path d="M67.024 31.44C66.44 31.44 65.912 31.34 65.44 31.14C64.976 30.94 64.608 30.652 64.336 30.276C64.064 29.9 63.924 29.456 63.916 28.944H65.716C65.74 29.288 65.86 29.56 66.076 29.76C66.3 29.96 66.604 30.06 66.988 30.06C67.38 30.06 67.688 29.968 67.912 29.784C68.136 29.592 68.248 29.344 68.248 29.04C68.248 28.792 68.172 28.588 68.02 28.428C67.868 28.268 67.676 28.144 67.444 28.056C67.22 27.96 66.908 27.856 66.508 27.744C65.964 27.584 65.52 27.428 65.176 27.276C64.84 27.116 64.548 26.88 64.3 26.568C64.06 26.248 63.94 25.824 63.94 25.296C63.94 24.8 64.064 24.368 64.312 24C64.56 23.632 64.908 23.352 65.356 23.16C65.804 22.96 66.316 22.86 66.892 22.86C67.756 22.86 68.456 23.072 68.992 23.496C69.536 23.912 69.836 24.496 69.892 25.248H68.044C68.028 24.96 67.904 24.724 67.672 24.54C67.448 24.348 67.148 24.252 66.772 24.252C66.444 24.252 66.18 24.336 65.98 24.504C65.788 24.672 65.692 24.916 65.692 25.236C65.692 25.46 65.764 25.648 65.908 25.8C66.06 25.944 66.244 26.064 66.46 26.16C66.684 26.248 66.996 26.352 67.396 26.472C67.94 26.632 68.384 26.792 68.728 26.952C69.072 27.112 69.368 27.352 69.616 27.672C69.864 27.992 69.988 28.412 69.988 28.932C69.988 29.38 69.872 29.796 69.64 30.18C69.408 30.564 69.068 30.872 68.62 31.104C68.172 31.328 67.64 31.44 67.024 31.44Z" fill="white"/>
<path d="M77.1325 31.44C76.3485 31.44 75.6285 31.256 74.9725 30.888C74.3165 30.52 73.7965 30.012 73.4125 29.364C73.0285 28.708 72.8365 27.968 72.8365 27.144C72.8365 26.328 73.0285 25.596 73.4125 24.948C73.7965 24.292 74.3165 23.78 74.9725 23.412C75.6285 23.044 76.3485 22.86 77.1325 22.86C77.9245 22.86 78.6445 23.044 79.2925 23.412C79.9485 23.78 80.4645 24.292 80.8405 24.948C81.2245 25.596 81.4165 26.328 81.4165 27.144C81.4165 27.968 81.2245 28.708 80.8405 29.364C80.4645 30.012 79.9485 30.52 79.2925 30.888C78.6365 31.256 77.9165 31.44 77.1325 31.44ZM77.1325 29.94C77.6365 29.94 78.0805 29.828 78.4645 29.604C78.8485 29.372 79.1485 29.044 79.3645 28.62C79.5805 28.196 79.6885 27.704 79.6885 27.144C79.6885 26.584 79.5805 26.096 79.3645 25.68C79.1485 25.256 78.8485 24.932 78.4645 24.708C78.0805 24.484 77.6365 24.372 77.1325 24.372C76.6285 24.372 76.1805 24.484 75.7885 24.708C75.4045 24.932 75.1045 25.256 74.8885 25.68C74.6725 26.096 74.5645 26.584 74.5645 27.144C74.5645 27.704 74.6725 28.196 74.8885 28.62C75.1045 29.044 75.4045 29.372 75.7885 29.604C76.1805 29.828 76.6285 29.94 77.1325 29.94Z" fill="white"/>
<path d="M89.6384 22.98V24.336H86.1464V26.484H88.8224V27.816H86.1464V31.356H84.4664V22.98H89.6384Z" fill="white"/>
<path d="M98.3297 22.98V24.336H96.0977V31.356H94.4177V24.336H92.1857V22.98H98.3297Z" fill="white"/>
<path d="M112.551 22.98L110.211 31.356H108.231L106.659 25.392L105.015 31.356L103.047 31.368L100.791 22.98H102.591L104.067 29.484L105.771 22.98H107.643L109.251 29.448L110.739 22.98H112.551Z" fill="white"/>
<path d="M120.584 29.76H117.248L116.696 31.356H114.932L117.944 22.968H119.9L122.912 31.356H121.136L120.584 29.76ZM120.128 28.416L118.916 24.912L117.704 28.416H120.128Z" fill="white"/>
<path d="M130.158 31.356L128.31 28.092H127.518V31.356H125.838V22.98H128.982C129.63 22.98 130.182 23.096 130.638 23.328C131.094 23.552 131.434 23.86 131.658 24.252C131.89 24.636 132.006 25.068 132.006 25.548C132.006 26.1 131.846 26.6 131.526 27.048C131.206 27.488 130.73 27.792 130.098 27.96L132.102 31.356H130.158ZM127.518 26.832H128.922C129.378 26.832 129.718 26.724 129.942 26.508C130.166 26.284 130.278 25.976 130.278 25.584C130.278 25.2 130.166 24.904 129.942 24.696C129.718 24.48 129.378 24.372 128.922 24.372H127.518V26.832Z" fill="white"/>
<path d="M137.006 24.336V26.436H139.826V27.768H137.006V29.988H140.186V31.356H135.326V22.968H140.186V24.336H137.006Z" fill="white"/>
</svg>
