<svg id="visual" viewBox="0 0 1000 200" width="1000" height="200" xmlns="http://www.w3.org/2000/svg" xmlns:xlink="http://www.w3.org/1999/xlink" version="1.1"><path d="M0 98L23.8 96.3C47.7 94.7 95.3 91.3 143 92.7C190.7 94 238.3 100 286 95.8C333.7 91.7 381.3 77.3 428.8 77.8C476.3 78.3 523.7 93.7 571.2 113.3C618.7 133 666.3 157 714 168.5C761.7 180 809.3 179 857 179.5C904.7 180 952.3 182 976.2 183L1000 184L1000 201L976.2 201C952.3 201 904.7 201 857 201C809.3 201 761.7 201 714 201C666.3 201 618.7 201 571.2 201C523.7 201 476.3 201 428.8 201C381.3 201 333.7 201 286 201C238.3 201 190.7 201 143 201C95.3 201 47.7 201 23.8 201L0 201Z" fill="#222222"></path><path d="M0 125L23.8 136.2C47.7 147.3 95.3 169.7 143 155.2C190.7 140.7 238.3 89.3 286 75.7C333.7 62 381.3 86 428.8 101.8C476.3 117.7 523.7 125.3 571.2 127.5C618.7 129.7 666.3 126.3 714 127C761.7 127.7 809.3 132.3 857 122.8C904.7 113.3 952.3 89.7 976.2 77.8L1000 66L1000 201L976.2 201C952.3 201 904.7 201 857 201C809.3 201 761.7 201 714 201C666.3 201 618.7 201 571.2 201C523.7 201 476.3 201 428.8 201C381.3 201 333.7 201 286 201C238.3 201 190.7 201 143 201C95.3 201 47.7 201 23.8 201L0 201Z" fill="#505050"></path><path d="M0 68L23.8 70.5C47.7 73 95.3 78 143 82.5C190.7 87 238.3 91 286 103.5C333.7 116 381.3 137 428.8 150.7C476.3 164.3 523.7 170.7 571.2 159.3C618.7 148 666.3 119 714 105.3C761.7 91.7 809.3 93.3 857 108.3C904.7 123.3 952.3 151.7 976.2 165.8L1000 180L1000 201L976.2 201C952.3 201 904.7 201 857 201C809.3 201 761.7 201 714 201C666.3 201 618.7 201 571.2 201C523.7 201 476.3 201 428.8 201C381.3 201 333.7 201 286 201C238.3 201 190.7 201 143 201C95.3 201 47.7 201 23.8 201L0 201Z" fill="#838384"></path><path d="M0 149L23.8 145C47.7 141 95.3 133 143 125.7C190.7 118.3 238.3 111.7 286 108.2C333.7 104.7 381.3 104.3 428.8 118.5C476.3 132.7 523.7 161.3 571.2 172C618.7 182.7 666.3 175.3 714 166.8C761.7 158.3 809.3 148.7 857 145.8C904.7 143 952.3 147 976.2 149L1000 151L1000 201L976.2 201C952.3 201 904.7 201 857 201C809.3 201 761.7 201 714 201C666.3 201 618.7 201 571.2 201C523.7 201 476.3 201 428.8 201C381.3 201 333.7 201 286 201C238.3 201 190.7 201 143 201C95.3 201 47.7 201 23.8 201L0 201Z" fill="#bababb"></path><path d="M0 142L23.8 142C47.7 142 95.3 142 143 145.7C190.7 149.3 238.3 156.7 286 161.7C333.7 166.7 381.3 169.3 428.8 173C476.3 176.7 523.7 181.3 571.2 176.8C618.7 172.3 666.3 158.7 714 156.7C761.7 154.7 809.3 164.3 857 172.3C904.7 180.3 952.3 186.7 976.2 189.8L1000 193L1000 201L976.2 201C952.3 201 904.7 201 857 201C809.3 201 761.7 201 714 201C666.3 201 618.7 201 571.2 201C523.7 201 476.3 201 428.8 201C381.3 201 333.7 201 286 201C238.3 201 190.7 201 143 201C95.3 201 47.7 201 23.8 201L0 201Z" fill="#f4f4f6"></path></svg>